<svg width="234" height="256" xmlns="http://www.w3.org/2000/svg" xmlns:xlink="http://www.w3.org/1999/xlink" overflow="hidden"><defs><clipPath id="clip0"><rect x="950" y="232" width="234" height="256"/></clipPath><clipPath id="clip1"><path d="M1157.54 339.84 1116.42 327.91 1104.23 369.936 1145.34 381.866Z" fill-rule="evenodd" clip-rule="evenodd"/></clipPath><clipPath id="clip2"><path d="M1157.54 339.84 1116.42 327.91 1104.23 369.936 1145.34 381.866Z" fill-rule="evenodd" clip-rule="evenodd"/></clipPath><clipPath id="clip3"><path d="M1157.54 339.84 1116.42 327.91 1104.23 369.936 1145.34 381.866Z" fill-rule="evenodd" clip-rule="evenodd"/></clipPath><clipPath id="clip4"><path d="M1008.3 303.748 1022.48 338.209 987.253 352.702 973.074 318.241Z" fill-rule="evenodd" clip-rule="evenodd"/></clipPath><clipPath id="clip5"><path d="M1008.3 303.748 1022.48 338.209 987.253 352.702 973.074 318.241Z" fill-rule="evenodd" clip-rule="evenodd"/></clipPath><clipPath id="clip6"><path d="M1008.3 303.748 1022.48 338.209 987.253 352.702 973.074 318.241Z" fill-rule="evenodd" clip-rule="evenodd"/></clipPath><clipPath id="clip7"><path d="M1005.47 382.749 1033.55 355.974 1060.92 384.67 1032.84 411.445Z" fill-rule="evenodd" clip-rule="evenodd"/></clipPath><clipPath id="clip8"><path d="M1005.47 382.749 1033.55 355.974 1060.92 384.67 1032.84 411.445Z" fill-rule="evenodd" clip-rule="evenodd"/></clipPath><clipPath id="clip9"><path d="M1005.47 382.749 1033.55 355.974 1060.92 384.67 1032.84 411.445Z" fill-rule="evenodd" clip-rule="evenodd"/></clipPath><clipPath id="clip10"><path d="M1102.77 316.536 1066.35 342.728 1039.58 305.497 1076 279.305Z" fill-rule="evenodd" clip-rule="evenodd"/></clipPath><clipPath id="clip11"><path d="M1102.77 316.536 1066.35 342.728 1039.58 305.497 1076 279.305Z" fill-rule="evenodd" clip-rule="evenodd"/></clipPath><clipPath id="clip12"><path d="M1102.77 316.536 1066.35 342.728 1039.58 305.497 1076 279.305Z" fill-rule="evenodd" clip-rule="evenodd"/></clipPath></defs><g clip-path="url(#clip0)" transform="translate(-950 -232)"><path d="M1066.5 485 952 435 952 285 1066.5 235 1181 285 1181 435Z" stroke="#000000" stroke-width="4" stroke-miterlimit="8" fill="#FFFFFF" fill-rule="evenodd"/><path d="M1040.1 341.229 1061.09 315.996 1063.65 318.123 1042.66 343.355Z" stroke="#000000" stroke-width="1.44084" stroke-miterlimit="8" fill="#00A2C7" fill-rule="evenodd"/><path d="M1023.98 339.974 1056.19 301.259 1058.75 303.385 1026.54 342.101Z" stroke="#000000" stroke-width="1.44084" stroke-miterlimit="8" fill="#E1E3E6" fill-rule="evenodd"/><path d="M1066.19 364.268 1088.49 337.459 1091.05 339.586 1068.75 366.395Z" stroke="#000000" stroke-width="1.44084" stroke-miterlimit="8" fill="#E13968" fill-rule="evenodd"/><path d="M1071.75 378.22 1103.96 339.505 1106.51 341.631 1074.3 380.347Z" stroke="#000000" stroke-width="1.44084" stroke-miterlimit="8" fill="#F6B32F" fill-rule="evenodd"/><path d="M1010.95 335.006 1048.41 289.983 1050.96 292.11 1013.51 337.132Z" stroke="#000000" stroke-width="1.44084" stroke-miterlimit="8" fill="#6DB124" fill-rule="evenodd"/><path d="M1079.53 389.493 1116.99 344.47 1119.54 346.597 1082.09 391.619Z" stroke="#000000" stroke-width="1.44084" stroke-miterlimit="8" fill="#6DB124" fill-rule="evenodd"/><path d="M1082.71 398.665 1086.65 393.935C1068.52 378.853 1068.5 360.486 1068.47 341.04 1068.46 331.164 1068.45 320.951 1065.91 311.156 1063 299.893 1057.07 290.663 1047.78 282.937L1043.84 287.667C1061.97 302.749 1062 321.116 1062.02 340.562 1062.03 350.438 1062.05 360.651 1064.58 370.446 1067.5 381.709 1073.43 390.94 1082.71 398.665Z" stroke="#000000" stroke-width="1.44084" stroke-miterlimit="8" fill="#E1E3E6" fill-rule="evenodd"/><path d="M1125.32 347.447 1121.39 352.177C1103.26 337.095 1085.19 340.415 1066.07 343.93 1056.35 345.715 1046.31 347.561 1036.22 346.85 1024.61 346.033 1014.46 341.881 1005.17 334.155L1009.1 329.425C1027.23 344.507 1045.3 341.188 1064.42 337.673 1074.14 335.888 1084.18 334.042 1094.28 334.752 1105.88 335.569 1116.04 339.722 1125.32 347.447Z" stroke="#000000" stroke-width="1.44084" stroke-miterlimit="8" fill="#E1E3E6" fill-rule="evenodd"/><g clip-path="url(#clip1)"><g clip-path="url(#clip2)"><g clip-path="url(#clip3)"><path d="M42.5516 17.2071 38.9839 13.6394C38.8163 13.4718 38.5897 13.3789 38.3524 13.3789L37.4606 13.3789 37.4606 12.487C37.4606 12.2498 37.366 12.0232 37.2001 11.8555L30.0648 4.7202C28.6342 3.28967 26.2367 0.892197 21.406 0.892197 16.579 0.892197 14.3652 3.10597 12.7473 4.72028 12.4922 4.9754 12.4155 5.35887 12.5546 5.6925 12.692 6.02605 13.0185 6.24371 13.3788 6.24371 20.573 6.24371 21.406 9.29767 21.406 11.5952 21.406 13.504 20.325 14.9577 19.6347 15.6981L25.4625 21.5259C27.0394 20.4592 29.2799 19.1997 30.3253 19.2925L30.3253 20.5144C30.3253 20.7517 30.4198 20.9783 30.5857 21.1459L35.0453 25.6055C35.2129 25.7714 35.4396 25.8659 35.6768 25.8659L35.7071 25.8659C35.9551 25.8588 36.187 25.7482 36.3476 25.5627L42.591 18.4273C42.9013 18.0723 42.8834 17.5408 42.5516 17.2071Z" transform="matrix(-0.960393 -0.278648 -0.284808 0.981625 1157.54 339.84)"/><path d="M1.34858 33.9592C0.47988 34.8279 0 35.9838 0 37.3181 0 39.8565 2.06393 41.9204 4.6023 41.9204 5.89561 41.9204 7.13716 41.371 8.00762 40.4149L24.1122 22.6996 18.361 16.9467 1.34858 33.9592Z" transform="matrix(-0.960393 -0.278648 -0.284808 0.981625 1157.54 339.84)"/></g></g></g><g clip-path="url(#clip4)"><g clip-path="url(#clip5)"><g clip-path="url(#clip6)"><path d="M36.4291 10.036C35.9461 9.82275 35.3819 9.9285 35.0093 10.3015L31.2271 14.0819 24.3275 12.8619 23.1069 5.96194 26.8894 2.18156C27.2617 1.8085 27.3675 1.24486 27.1547 0.761807 26.9421 0.279357 26.4529-0.0235767 25.9268 0.00151618 23.3492 0.121901 20.8085 1.16246 18.8393 3.13213 15.8155 6.1548 14.9797 10.5234 16.3047 14.3037L1.46835 29.1433C-0.39019 31.0006-0.39019 34.0132 1.46835 35.8712 2.35956 36.7631 3.56917 37.2645 4.83147 37.2645 6.09256 37.2645 7.30323 36.763 8.19444 35.8718L23.1045 20.9617C26.834 22.178 31.0944 21.3145 34.0568 18.3503 36.026 16.3817 37.067 13.8415 37.1887 11.2646 37.212 10.7379 36.9122 10.2499 36.4291 10.036ZM7.14229 33.0336C6.35933 33.8167 5.08831 33.8167 4.30536 33.0336 3.52103 32.2495 3.52103 30.9797 4.30536 30.1954 5.08831 29.4125 6.35933 29.4125 7.14229 30.1954 7.9254 30.9797 7.9254 32.2494 7.14229 33.0336Z" stroke="#E7E6E6" stroke-width="0.0757873" transform="matrix(0.380508 0.924778 -0.945222 0.38892 1008.3 303.748)"/></g></g></g><g clip-path="url(#clip7)"><g clip-path="url(#clip8)"><g clip-path="url(#clip9)"><path d="M37.5767 14.3668C36.1397 13.1609 33.9894 13.3496 32.7858 14.784L29.5506 18.6123 29.5506 7.51127C29.5506 6.58085 29.1638 5.67984 28.4892 5.03918L24.1719 0.937989C23.5354 0.3334 22.7015 0.000378863 21.8237 0.000378863L3.40969 0.000378863C1.52962 0.000378863 0 1.53 0 3.41007L0 35.3854C0 37.2655 1.52962 38.7951 3.40969 38.7951L26.141 38.7951C28.0211 38.7951 29.5507 37.2655 29.5507 35.3854L29.5507 29.175C29.6904 29.0096 37.9709 19.2013 37.9969 19.1705 39.2083 17.7269 39.0206 15.5782 37.5767 14.3668ZM22.7313 2.7047C27.2787 7.02435 26.9557 6.70861 27.041 6.81984L22.7313 6.81984 22.7313 2.7047ZM27.2775 35.3854C27.2775 36.0122 26.7677 36.522 26.141 36.522L3.40969 36.522C2.78298 36.522 2.2731 36.0122 2.2731 35.3854L2.2731 3.41007C2.2731 2.78336 2.78298 2.27348 3.40969 2.27348L20.4582 2.27348 20.4582 7.95628C20.4582 8.58398 20.967 9.09287 21.5947 9.09287L27.2775 9.09287 27.2775 21.302C26.7893 21.8797 22.8692 26.5185 22.4455 27.0198 22.107 27.4233 21.8634 27.9072 21.7411 28.4194L20.6849 32.8411C20.5849 33.2599 20.73 33.6992 21.0598 33.9759 21.3899 34.2529 21.8478 34.3191 22.2424 34.1481L26.4137 32.34C26.7268 32.2042 27.0189 32.0198 27.2775 31.7981L27.2775 35.3854ZM24.5742 28.0228 26.3153 29.4837 25.9281 29.9422C25.8154 30.0767 25.6706 30.1846 25.5096 30.2544L23.424 31.1585 23.9523 28.9476C23.993 28.7769 24.0742 28.6155 24.1844 28.4841L24.5742 28.0228ZM27.7816 27.7467 26.0413 26.2865C26.2179 26.0776 31.9287 19.3197 32.3236 18.8525L34.0603 20.3096 27.7816 27.7467ZM36.2579 17.7067 35.5268 18.5728 33.791 17.1163 34.5246 16.2482C34.9254 15.7706 35.6392 15.7083 36.1156 16.108 36.6014 16.5156 36.655 17.2334 36.2579 17.7067Z" transform="matrix(0.723674 -0.690142 0.705399 0.739672 1005.47 382.749)"/><path d="M17.0485 6.81976 5.6828 6.81976C5.0551 6.81976 4.54621 7.32865 4.54621 7.95635 4.54621 8.58405 5.0551 9.09294 5.6828 9.09294L17.0485 9.09294C17.6762 9.09294 18.1851 8.58405 18.1851 7.95635 18.1851 7.32865 17.6762 6.81976 17.0485 6.81976Z" transform="matrix(0.723674 -0.690142 0.705399 0.739672 1005.47 382.749)"/><path d="M23.8679 13.7149 5.6828 13.7149C5.0551 13.7149 4.54621 14.2238 4.54621 14.8515 4.54621 15.4792 5.0551 15.9881 5.6828 15.9881L23.8679 15.9881C24.4956 15.9881 25.0044 15.4792 25.0044 14.8515 25.0044 14.2238 24.4956 13.7149 23.8679 13.7149Z" transform="matrix(0.723674 -0.690142 0.705399 0.739672 1005.47 382.749)"/><path d="M23.8679 20.5344 5.6828 20.5344C5.0551 20.5344 4.54621 21.0433 4.54621 21.671 4.54621 22.2987 5.0551 22.8076 5.6828 22.8076L23.8679 22.8076C24.4956 22.8076 25.0044 22.2987 25.0044 21.671 25.0044 21.0432 24.4956 20.5344 23.8679 20.5344Z" transform="matrix(0.723674 -0.690142 0.705399 0.739672 1005.47 382.749)"/><path d="M17.0485 27.3538 5.6828 27.3538C5.0551 27.3538 4.54621 27.8627 4.54621 28.4904 4.54621 29.1181 5.0551 29.6269 5.6828 29.6269L17.0485 29.6269C17.6762 29.6269 18.1851 29.1181 18.1851 28.4904 18.1851 27.8627 17.6762 27.3538 17.0485 27.3538Z" transform="matrix(0.723674 -0.690142 0.705399 0.739672 1005.47 382.749)"/></g></g></g><g clip-path="url(#clip10)"><g clip-path="url(#clip11)"><g clip-path="url(#clip12)"><path d="M15.6028 28.0147 5.13144 38.486C4.77865 38.8388 4.77865 39.4111 5.13144 39.7639 5.48425 40.1167 6.0561 40.1167 6.4089 39.7639L16.8802 29.2926C17.0498 29.123 17.1453 28.8934 17.1453 28.6538 17.1453 28.4139 17.0498 28.1842 16.8802 28.0147 16.5231 27.673 15.9599 27.673 15.6028 28.0147Z" transform="matrix(-0.811905 0.58379 -0.596695 -0.829853 1102.75 316.554)"/><path d="M42.6374 0 37.7675 3.47878 37.0422 5.64628C37.0029 5.76506 36.9361 5.87283 36.8476 5.96132L24.1289 18.6824 26.2118 20.7653 38.9329 8.04426C39.0218 7.95655 39.1295 7.89009 39.2479 7.85037L41.4154 7.1255 44.8942 2.25521Z" transform="matrix(-0.811905 0.58379 -0.596695 -0.829853 1102.75 316.554)"/><path d="M22.4204 19.2519 20.1706 17.0021 18.5483 18.6246C18.4102 20.7653 16.9881 22.6087 14.9519 23.2853L14.1778 23.5428C13.6378 23.7233 13.1474 24.0266 12.7446 24.4289L1.62907 35.5445C-0.503036 37.6766-0.503036 41.1338 1.62907 43.2659 3.76118 45.3984 7.21832 45.3984 9.35043 43.2659L20.4665 32.1503C20.8684 31.7472 21.1716 31.2564 21.3521 30.7163L21.6109 29.9423C22.2878 27.9069 24.1308 26.4844 26.2716 26.3459L27.892 24.7236ZM18.0193 30.4311 7.54791 40.9025C6.56543 41.8834 4.97492 41.8834 3.99243 40.9025 3.01272 39.92 3.01272 38.33 3.99243 37.3475L14.4637 26.8761C15.4592 25.9271 17.0242 25.9271 18.0201 26.8761 19.0014 27.8578 19.0014 29.4495 18.0201 30.4311Z" transform="matrix(-0.811905 0.58379 -0.596695 -0.829853 1102.75 316.554)"/></g></g></g><rect x="1026.5" y="424.5" width="82" height="28" stroke="#000000" stroke-linejoin="round" stroke-miterlimit="10"/><text fill="#FFFFFF" font-family="Arial,Arial_MSFontService,sans-serif" font-weight="700" font-size="15" transform="translate(1047.34 443)">biokit</text></g></svg>